PathFileType	4	(X/Y/Z)	Patient4_TMGait_0pt6_01_right_45.trc.trc
DataRate	CameraRate	NumFrames	NumMarkers	Units	OrigDataRate	OrigDataStartFrame	OrigNumFrames
80.924855491329	80.924855491329	4	33	mm	80.924855491329	124	       141
Frame#	Time	Sacral			L.Shoulder			Chest			R.Shoulder			Neck			R.ASIS			L.ASIS			R.Thigh.Superior			R.Thigh.Lateral			R.Thigh.Inferior			R.Patella			L.Thigh.Superior			L.Thigh.Lateral			L.Thigh.Inferior			L.Patella			L.Shank.Superior			L.Shank.Lateral			L.Shank.Inferior			R.Shank.Superior			R.Shank.Lateral			R.Shank.Inferior			R.Heel			R.Midfoot.Superior			R.Midfoot.Lateral			R.Toe			L.Heel			L.Midfoot.Lateral			L.Midfoot.Superior			L.Toe			L.Elbow			L.Wrist			R.Elbow			R.Wrist			
		X1	Y1	Z1	X2	Y2	Z2	X3	Y3	Z3	X4	Y4	Z4	X5	Y5	Z5	X6	Y6	Z6	X7	Y7	Z7	X8	Y8	Z8	X9	Y9	Z9	X10	Y10	Z10	X11	Y11	Z11	X12	Y12	Z12	X13	Y13	Z13	X14	Y14	Z14	X15	Y15	Z15	X16	Y16	Z16	X17	Y17	Z17	X18	Y18	Z18	X19	Y19	Z19	X20	Y20	Z20	X21	Y21	Z21	X22	Y22	Z22	X23	Y23	Z23	X24	Y24	Z24	X25	Y25	Z25	X26	Y26	Z26	X27	Y27	Z27	X28	Y28	Z28	X29	Y29	Z29	X30	Y30	Z30	X31	Y31	Z31	X32	Y32	Z32	X33	Y33	Z33	

124	55.629928571429	783.308734422531	998.802938324758	426.729961609214	974.264545670731	1422.382510348476	246.264090773302	1069.614689513356	1353.614728556105	410.335147638288	981.541457975515	1430.586478289619	579.516703763951	947.658995420153	1482.909371351308	397.825264431773	1007.010917179325	928.853487049888	547.887185007275	997.456551403191	949.985616639342	274.134115768463	1071.544414792385	750.813534986964	520.321610550045	1019.433258463078	628.475296645402	587.027037276237	1107.730344425267	590.317973132675	507.616904780744	1136.815810666407	511.472482834929	520.250867076333	987.993853894807	720.645857095214	301.688926343351	862.979631254076	632.649207455685	243.825871141472	917.555444795522	536.754888950563	308.329098436483	899.273555072274	471.386555015706	319.198016973588	863.719690091292	407.635513021259	313.121527572205	757.157190431370	305.610338460160	267.411912794572	794.600769004001	190.410777374412	341.631326004606	1128.119951934451	424.315306585300	526.969644314704	1082.836228598593	303.754053194679	581.628782405270	1161.977066565833	227.541022624121	529.316641685003	1086.090335045565	41.135997536090	488.819406391293	1243.766996350872	117.365738303020	536.790487985711	1166.847432783107	40.036815486574	565.738955717767	1368.425090350239	82.893626235419	566.662617700172	653.432522432326	41.394737943556	392.589430932365	725.369638081269	35.663853395184	310.610174042735	810.339946168093	96.155354326342	333.677810610463	937.291971592706	40.338670994267	303.435613277856	1031.347006945479	1087.213759290465	105.796274560172	1284.064045847298	1091.015935029451	132.243779879628	820.104637000543	1128.019187391030	688.665334401335	765.398741610708	872.750992534749	697.835142462235	
125	55.642285714286	786.417021067321	996.826749289681	428.824437180652	974.178173009471	1421.565565050442	248.347879181579	1070.131649503884	1353.458666943822	412.370367465204	981.373989512271	1429.569165563648	581.645132622943	947.405211056115	1481.814934766048	399.979207846478	1010.367215858862	927.599841032107	549.352216611323	1000.303090941937	948.888900196023	275.960577739976	1075.031628000514	748.174263199075	521.844686918818	1019.911951973704	626.148439889412	587.008180638847	1108.198127097248	587.884190589881	507.813730363691	1135.679673488947	508.611995381515	519.371013317266	990.029280223356	719.323867265262	302.625471714337	864.122251592047	631.956905879955	245.203324434653	918.362078108060	535.454074678144	309.275328926139	899.551929914483	469.421492538728	320.092404697360	862.616229727937	406.213860719615	313.943621557081	753.904719490651	306.378885332672	268.191146230318	789.213172100807	190.164872930952	341.742707756243	1126.574295083749	420.959294154799	525.925519080723	1079.910018398243	300.824209838764	580.223806201529	1157.825624608375	223.881276395138	527.591702393471	1078.463097102824	40.348335249818	487.292509456248	1238.010253671098	112.604201090351	534.150983876423	1158.993703229698	38.327033142393	564.471916841239	1361.852841189334	75.086050303140	564.776221233268	646.011940606194	42.584819831703	392.286985059272	718.043064875438	36.045370395216	310.511770076319	803.320558976061	96.289406461321	333.434559207050	929.985468530486	39.991203068272	303.342962744026	1032.964231888668	1086.402023501289	108.059260480635	1285.545498621362	1091.098801344559	136.078254093876	822.350944925292	1125.747260221781	690.878429655567	768.774388287409	870.196851557765	700.548321973576	
126	55.654642857143	789.489731952000	995.145946508710	430.998781002342	974.160689762092	1420.973413872835	250.519987026261	1070.761412648573	1353.490228168955	414.486644608419	981.337911739634	1428.684558203783	583.900804417691	947.313098385596	1480.969730254669	402.226916593670	1013.717111152437	926.726965787237	550.906388981436	1003.122572657500	948.009195471970	277.844900525169	1078.752662000099	746.195297941075	523.234394738876	1021.154510516430	624.544209723525	587.096224625151	1109.232680148371	586.291070013533	507.853765449431	1135.172444519103	506.387029294527	518.412817656895	992.368595758705	718.237094101667	303.725600936578	865.795214424126	631.303945523690	246.701756233877	919.886228084110	534.234322380565	310.320365156368	900.612865786873	467.397626635785	320.975465748399	862.088080235117	404.800615287070	314.765310942984	751.103359531839	307.391894095179	269.012367187940	784.116151798872	190.093487375428	341.766441916114	1125.581475972024	418.172424958714	524.970570306261	1077.504311136397	298.602022939086	579.228499390242	1153.768069376972	220.684617216949	526.048694814408	1070.393284747556	39.935042425420	486.244117409763	1231.909197696877	108.327371529646	531.753743352329	1150.830380513826	37.038194097322	563.571943004811	1354.959330791542	67.798149819815	562.941022054312	638.649764276407	44.262899624294	391.916336604818	710.744161552155	36.594994900842	310.370845131276	796.473639053965	96.462937796107	333.044052505393	922.687647722100	39.642688956205	303.241101513643	1034.035614444228	1085.554108883828	110.467343939975	1286.599495488349	1090.068950507183	139.900370254933	825.644937618084	1122.963810181794	693.186548333337	773.853618647148	866.970276373022	703.267261393539	
127	55.667000000000	792.459402866875	993.857871603636	433.219028123111	974.265410864848	1420.676015384808	252.758896331779	1071.505620145060	1353.750539747490	416.673191219229	981.453790614160	1428.024560484307	586.252001353986	947.406604706385	1480.451519281720	404.536671283183	1016.986110402338	926.323009258396	552.590224597810	1005.869672665150	947.436435511386	279.766796854422	1082.584176205453	744.982280123360	524.494754403834	1023.137498969217	623.703229456321	587.328394700924	1110.816463480453	585.568169904033	507.800885268288	1135.275163134900	504.836256328462	517.483395314109	994.997921860680	717.466572489666	305.014088821184	868.035305912713	630.730362919210	248.307606893638	922.219395486518	533.152627796426	311.428551620656	902.562339923698	465.367592300811	321.758962393365	862.216282726370	403.449548707224	315.516098854116	748.821208044694	308.731013737812	269.847839997423	779.393485011392	190.271672380092	341.649730723564	1125.135665563205	416.031381270488	524.183259873241	1075.667076929464	297.134640407046	578.683890655384	1149.919656769326	218.065209672110	524.744277507904	1062.252071976948	39.827146291970	485.617035687517	1225.649181921142	104.758539336887	529.724531167788	1142.694765849137	36.172492994207	563.006859471281	1347.972969438774	61.486785522394	561.292322325309	631.403718927195	46.569346346065	391.464625812522	703.498174355655	37.382923243149	310.178384133137	789.862771593730	96.687468060777	332.464729855522	915.392640958582	39.303844505815	303.139142400398	1034.550307098047	1084.727271812981	113.044983215979	1287.217830890731	1087.905287916569	143.671371691852	829.955481364078	1119.836756207263	695.577268594655	780.643515832797	863.240102412841	705.951643796658	
